<?xml version="1.0" encoding="UTF-8" standalone="no"?>
<svg
   width="101.888mm"
   height="70.882698mm"
   viewBox="0 0 101.888 70.8827"
   version="1.1"
   id="svg1"
   xml:space="preserve"
   inkscape:version="1.4.3 (0d15f75042, 2025-12-25)"
   sodipodi:docname="github.petexy.alexy.svg"
   inkscape:export-filename="logo.png"
   inkscape:export-xdpi="96"
   inkscape:export-ydpi="96"
   xmlns:inkscape="http://www.inkscape.org/namespaces/inkscape"
   xmlns:sodipodi="http://sodipodi.sourceforge.net/DTD/sodipodi-0.dtd"
   xmlns="http://www.w3.org/2000/svg"
   xmlns:svg="http://www.w3.org/2000/svg"><sodipodi:namedview
     id="namedview1"
     pagecolor="#505050"
     bordercolor="#eeeeee"
     borderopacity="1"
     inkscape:showpageshadow="0"
     inkscape:pageopacity="0"
     inkscape:pagecheckerboard="0"
     inkscape:deskcolor="#505050"
     inkscape:document-units="mm"
     inkscape:zoom="1.4142136"
     inkscape:cx="210.71781"
     inkscape:cy="119.85459"
     inkscape:window-width="2048"
     inkscape:window-height="1086"
     inkscape:window-x="0"
     inkscape:window-y="0"
     inkscape:window-maximized="1"
     inkscape:current-layer="svg1"><inkscape:page
       x="0"
       y="0"
       width="101.888"
       height="70.882698"
       id="page1"
       margin="0"
       bleed="0" /></sodipodi:namedview><defs
     id="defs1">
    <inkscape:path-effect
   effect="mirror_symmetry"
   start_point="248.29616,131.48556"
   end_point="248.29616,441.0223"
   center_point="248.29616,286.25393"
   id="path-effect36"
   is_visible="true"
   lpeversion="1.2"
   lpesatellites=""
   mode="free"
   discard_orig_path="false"
   fuse_paths="false"
   oposite_fuse="false"
   split_items="false"
   split_open="false"
   link_styles="false" /><clipPath
   clipPathUnits="userSpaceOnUse"
   id="clipPath55"><path
     id="path55"
     style="stroke-width:0.1;stroke-linecap:square;paint-order:markers fill stroke;stop-color:#000000"
     d="m 1736.6147,-745.57287 h 1589.4765 v 72.46715 H 1736.6147 Z" /></clipPath><clipPath
   clipPathUnits="userSpaceOnUse"
   id="clipPath25"><rect
     style="fill:#ff0000;stroke:none;stroke-width:3;stroke-linecap:square;stroke-linejoin:miter;paint-order:stroke markers fill;stop-color:#000000"
     id="rect25-8"
     width="78"
     height="45.033199"
     x="763.61322"
     y="452.82422" /></clipPath><clipPath
   clipPathUnits="userSpaceOnUse"
   id="clipPath33"><rect
     style="fill:#000000;stroke:none;stroke-width:0.999995;stroke-linecap:butt;stroke-linejoin:bevel;paint-order:stroke markers fill;stop-color:#000000"
     id="rect33"
     width="46.19186"
     height="80.006783"
     x="74.999985"
     y="399.99661" /></clipPath><inkscape:path-effect
   effect="mirror_symmetry"
   start_point="109.13712,84.210202"
   end_point="109.13712,142.43726"
   center_point="109.13712,113.32373"
   id="path-effect5"
   is_visible="true"
   lpeversion="1.2"
   lpesatellites=""
   mode="X"
   discard_orig_path="false"
   fuse_paths="false"
   oposite_fuse="false"
   split_items="false"
   split_open="false"
   link_styles="false" /><inkscape:path-effect
   effect="mirror_symmetry"
   start_point="109.13712,140.33572"
   end_point="109.13712,150.36985"
   center_point="109.13712,145.35279"
   id="path-effect4"
   is_visible="true"
   lpeversion="1.2"
   lpesatellites=""
   mode="X"
   discard_orig_path="false"
   fuse_paths="false"
   oposite_fuse="false"
   split_items="false"
   split_open="false"
   link_styles="false" /><inkscape:path-effect
   effect="mirror_symmetry"
   start_point="109.13713,48.873756"
   end_point="109.13713,190.75351"
   center_point="109.13713,119.81363"
   id="path-effect2"
   is_visible="true"
   lpeversion="1.2"
   lpesatellites=""
   mode="vertical"
   discard_orig_path="false"
   fuse_paths="false"
   oposite_fuse="false"
   split_items="false"
   split_open="false"
   link_styles="false" /><inkscape:perspective
   sodipodi:type="inkscape:persp3d"
   inkscape:vp_x="0 : -77.617309 : 1"
   inkscape:vp_y="0 : 1000 : 0"
   inkscape:vp_z="130.34883 : -73.97314 : 1"
   inkscape:persp3d-origin="105.00001 : -127.11731 : 1"
   id="perspective1" /><rect
   x="80.671883"
   y="468.29041"
   width="105.26696"
   height="55.092991"
   id="rect1" /><inkscape:path-effect
   effect="mirror_symmetry"
   start_point="109.13712,84.210202"
   end_point="109.13712,142.43726"
   center_point="109.13712,113.32373"
   id="path-effect5-0"
   is_visible="true"
   lpeversion="1.2"
   lpesatellites=""
   mode="X"
   discard_orig_path="false"
   fuse_paths="false"
   oposite_fuse="false"
   split_items="false"
   split_open="false"
   link_styles="false" /></defs><g
     inkscape:label="Layer 1"
     inkscape:groupmode="layer"
     id="layer1"
     transform="translate(-54.350761,-74.380088)"
     style="display:inline" /><g
     inkscape:label="Layer 1"
     id="g85"
     style="display:none;fill:#ffffff;fill-opacity:1;stroke:none;stroke-width:0.641545;stroke-dasharray:none;stroke-opacity:1;paint-order:markers fill stroke"
     transform="matrix(0.88267412,0,0,0.88267412,-41.463467,-53.54091)"
     inkscape:export-filename="g85.png"
     inkscape:export-xdpi="802.32483"
     inkscape:export-ydpi="802.32483"><g
       id="g99"
       style="fill:#ffffff;fill-opacity:1;stroke:none;stroke-width:0.641545;stroke-dasharray:none;stroke-opacity:1;paint-order:markers fill stroke"><g
         id="g77"
         style="fill:#ffffff;fill-opacity:1;stroke:none;stroke-width:0.641545;stroke-dasharray:none;stroke-opacity:1;paint-order:markers fill stroke"><path
           style="display:inline;fill:#ffffff;fill-opacity:1;stroke:none;stroke-width:0.641545;stroke-dasharray:none;stroke-opacity:1;paint-order:markers fill stroke"
           d="m 87.364822,120.87492 c 3.836176,7.07312 18.601688,26.83717 19.717598,7.87401 0.0497,-10.02409 -0.85762,-9.44118 -7.873961,-15.45519 C 89.312293,104.2147 74.987569,91.493392 68.94882,86.125136 44.18932,71.522225 63.740455,145.32594 84.566698,142.34948 51.060244,105.48625 61.034864,67.347 87.364822,120.87492 Z m 43.544598,0 c -3.83618,7.07312 -18.60169,26.83717 -19.7176,7.87401 -0.0497,-10.02409 0.85762,-9.44118 7.87396,-15.45519 9.89617,-9.07904 24.22089,-21.800348 30.25964,-27.168604 24.7595,-14.602911 5.20836,59.200804 -15.61788,56.224344 33.50646,-36.86323 23.53184,-75.00248 -2.79812,-21.47456 z"
           id="path71-6"
           sodipodi:nodetypes="cccccc"
           inkscape:path-effect="#path-effect5-0"
           inkscape:original-d="m 87.364822,120.87492 c 3.836176,7.07312 18.601688,26.83717 19.717598,7.87401 0.0497,-10.02409 -0.85762,-9.44118 -7.873961,-15.45519 C 89.312293,104.2147 74.987569,91.493392 68.94882,86.125136 44.18932,71.522225 63.740455,145.32594 84.566698,142.34948 51.060244,105.48625 61.034864,67.347 87.364822,120.87492 Z"
           inkscape:label="path71"
           transform="translate(-1.755269,4.2155461)" /><path
           id="path83"
           style="display:inline;fill:#ffffff;fill-opacity:1;stroke:none;stroke-width:0.641545;stroke-dasharray:none;stroke-opacity:1;paint-order:markers fill stroke"
           d="m 142.15128,198.63862 c 6.83114,5.47333 13.11959,5.83335 14.73491,7.86498 -4.82795,-0.69463 -10.11546,-0.77315 -14.71685,0.0444 -4.60139,-0.81761 -9.55044,-0.72522 -14.37839,-0.0306 1.61532,-2.03163 7.52893,-2.40499 14.36033,-7.87887 z"
           transform="matrix(-1,0,0,1,251.28937,-47.804896)" /><path
           id="path74"
           style="fill:#ffffff;fill-opacity:1;stroke:none;stroke-width:0.641545;stroke-dasharray:none;stroke-opacity:1;paint-order:markers fill stroke"
           d="m 83.125226,148.90568 10.925589,3.91489 -11.538637,0.34774 11.558084,0.78066 -10.800109,4.0376 12.246606,-3.27453 -0.46488,-1.17239 0.0065,-0.46534 0.424133,-1.14877 z m 52.023874,0 -12.1577,3.01986 0.20975,1.25249 -0.0417,0.40607 -0.40191,1.12794 12.24661,3.27453 -10.80011,-4.0376 11.55808,-0.78066 -11.53863,-0.34774 z"
           sodipodi:nodetypes="cccccccccccccccccccc" /><path
           style="fill:#ffffff;fill-opacity:1;stroke:none;stroke-width:0.641545;stroke-dasharray:none;stroke-opacity:1;paint-order:markers fill stroke"
           d="m 104.57859,147.92813 c -3.63865,-8.96971 -5.275827,-1.19057 -10.077201,-7.59241 -1.081836,8.83493 6.287821,13.05903 10.077201,7.59241 z m 9.11706,0 c 3.63865,-8.96971 5.27583,-1.19057 10.0772,-7.59241 1.08184,8.83493 -6.28782,13.05903 -10.0772,7.59241 z"
           id="path75"
           sodipodi:nodetypes="ccc"
           inkscape:path-effect="#path-effect4"
           inkscape:original-d="m 104.57859,147.92813 c -3.63865,-8.96971 -5.275827,-1.19057 -10.077201,-7.59241 -1.081836,8.83493 6.287821,13.05903 10.077201,7.59241 z" /><path
           id="path77"
           style="display:inline;fill:#ffffff;fill-opacity:1;stroke:none;stroke-width:0.641545;stroke-dasharray:none;stroke-opacity:1;paint-order:markers fill stroke"
           d="m 94.489301,158.84919 14.644159,3.92184 14.28022,-3.9098 c -5.30751,-0.23135 -8.61292,-0.17582 -14.27744,0.24401 -5.66453,-0.41978 -9.339432,-0.48741 -14.646939,-0.25605 z" /></g><g
         id="g84"
         transform="matrix(-1,0,0,1,251.28937,-47.804895)"
         style="fill:#ffffff;fill-opacity:1;stroke:none;stroke-width:0.641545;stroke-dasharray:none;stroke-opacity:1;paint-order:markers fill stroke" /></g></g><g
     id="left-side"
     transform="matrix(0.23161422,0,0,0.23161422,-6.5649244,-31.934222)"
     style="fill:none;stroke:#ffffff;stroke-width:4.29026;stroke-dasharray:none;stroke-opacity:1">
    <g
   id="half"
   style="fill:none;stroke-width:4.29026;stroke-dasharray:none">
      <path
   d="M 222.57832,256.29001 146.06614,152.5009 C 142.98179,148.31697 31.283137,140.24002 31.283137,140.24002 l 25.944489,87.4252 c 0.231104,5.63433 167.110644,119.67426 169.435144,108.76316 z"
   fill="none"
   stroke="#ffffff"
   stroke-width="3.0734"
   id="path6"
   style="display:inline;fill:none;stroke:#ffffff;stroke-width:4.29026;stroke-dasharray:none;stroke-opacity:1"
   sodipodi:nodetypes="cscccc" /><g
   fill="none"
   stroke="#ffffff"
   stroke-width="2"
   id="g13"
   transform="matrix(0.69353188,-0.18390907,0.15757204,0.80945069,14.328074,99.029339)"
   style="fill:none;stroke:#ffffff;stroke-width:5.58375;stroke-dasharray:none;stroke-opacity:1"><polyline
     points="240,250 180,200 150,200 120,150 50,150"
     id="polyline6"
     transform="translate(2.4395735,2.2382194)"
     style="fill:none;stroke:#ffffff;stroke-width:5.58375;stroke-dasharray:none;stroke-opacity:1" /><polyline
     points="180,200 180,100 120,80"
     id="polyline7"
     transform="matrix(-1.0005342,-0.00741774,0.1440653,1.0005342,211.24032,1.8116656)"
     style="fill:none;stroke:#ffffff;stroke-width:5.58375;stroke-dasharray:none;stroke-opacity:1" /><polyline
     points="180,200 180,100 120,80"
     id="polyline7-4"
     transform="matrix(0.61291828,-0.65273359,-0.95648706,-0.61291828,161.57878,328.81385)"
     style="fill:none;stroke:#ffffff;stroke-width:5.58375;stroke-dasharray:none;stroke-opacity:1" /><polyline
     points="150,200 150,280 180,310 225,345"
     id="polyline8"
     style="fill:none;stroke:#ffffff;stroke-width:5.58375;stroke-dasharray:none;stroke-opacity:1"
     transform="matrix(0.96893141,-0.16606306,0.21936177,0.99446886,-57.958572,-5.2292237)" /><polyline
     points="120,150 100,180 100,240"
     id="polyline9"
     style="fill:none;stroke:#ffffff;stroke-width:5.58375;stroke-dasharray:none;stroke-opacity:1" /><circle
     fill="#000000"
     stroke-width="3"
     id="circle9"
     style="fill:none;stroke:#ffffff;stroke-width:5.58375;stroke-dasharray:none;stroke-opacity:1"
     cx="180"
     cy="200"
     r="6" /><circle
     fill="#ffffff"
     id="circle10"
     style="fill:none;stroke:#ffffff;stroke-width:5.58375;stroke-dasharray:none;stroke-opacity:1"
     cx="150"
     cy="200"
     r="4" /><circle
     fill="#000000"
     stroke-width="2"
     id="circle11"
     style="fill:none;stroke:#ffffff;stroke-width:5.58375;stroke-dasharray:none;stroke-opacity:1"
     cx="120"
     cy="150"
     r="5" /><rect
     x="275.13068"
     y="109.41743"
     width="29.617311"
     height="30.922991"
     fill="#000000"
     stroke-width="2"
     id="rect12"
     style="fill:none;stroke:#ffffff;stroke-width:5.63272;stroke-dasharray:none;stroke-opacity:1"
     sodipodi:type="rect"
     d="m 135,235 30,0 0,30 -30,0 z"
     transform="matrix(0.83620242,0.54842092,-0.69385072,0.72011886,0,0)" /><ellipse
     fill="#ffffff"
     id="circle13"
     style="fill:none;stroke:#ffffff;stroke-width:5.63272;stroke-dasharray:none;stroke-opacity:1"
     cx="289.93933"
     cy="124.87893"
     rx="3.9489748"
     ry="4.1230655"
     transform="matrix(0.83620242,0.54842092,-0.69385072,0.72011886,0,0)" /></g><path
   d="m 231.70384,381.81534 c -10,-20 -30,-30 -60,-30 20,26.66667 40,36.66667 60,30 z"
   fill="none"
   stroke="#ffffff"
   stroke-width="3"
   id="path13"
   style="fill:none;stroke:#ffffff;stroke-width:4.29026;stroke-dasharray:none;stroke-opacity:1" /><circle
   fill="#ffffff"
   id="circle14"
   style="fill:none;stroke:#ffffff;stroke-width:4.29026;stroke-dasharray:none;stroke-opacity:1"
   cx="206.70384"
   cy="368.81534"
   r="2.3769279" /><circle
   fill="none"
   stroke="#ffffff"
   stroke-width="1"
   id="circle15"
   style="fill:none;stroke:#ffffff;stroke-width:4.29026;stroke-dasharray:none;stroke-opacity:1"
   cx="206.70384"
   cy="368.81534"
   r="9" /><path
   d="m 246.59967,395.95785 -67.47169,25.07191 67.47169,20.05753 z"
   fill="none"
   stroke="#ffffff"
   stroke-width="3"
   id="path15"
   style="fill:none;stroke:#ffffff;stroke-width:4.21812;stroke-dasharray:none;stroke-opacity:1" /><line
   x1="230"
   y1="403"
   x2="230"
   y2="435.11337"
   stroke="#ffffff"
   stroke-width="2"
   id="line15"
   style="fill:none;fill-opacity:1;stroke:#ffffff;stroke-width:5.69999;stroke-dasharray:none;stroke-opacity:1" /><line
   x1="210"
   y1="410"
   x2="210"
   y2="430.22675"
   stroke="#ffffff"
   stroke-width="2"
   id="line16"
   style="fill:none;stroke:#ffffff;stroke-width:4.29026;stroke-dasharray:none;stroke-opacity:1" /><polygon
   points="185,395 120,380 185,399 "
   fill="none"
   stroke="#ffffff"
   stroke-width="2"
   id="polygon16"
   transform="translate(7.1561098,0.68153427)"
   style="fill:none;stroke:#ffffff;stroke-width:4.29026;stroke-dasharray:none;stroke-opacity:1" /><circle
   fill="#ffffff"
   id="circle16"
   style="fill:none;stroke:#ffffff;stroke-width:4.29026;stroke-dasharray:none;stroke-opacity:1"
   cx="126.47458"
   cy="380.34076"
   r="3" /><polygon
   points="185,405 115,405 185,409 "
   fill="none"
   stroke="#ffffff"
   stroke-width="2"
   id="polygon17"
   transform="translate(7.1561098,-3.7484385)"
   style="fill:none;stroke:#ffffff;stroke-width:4.29026;stroke-dasharray:none;stroke-opacity:1" /><circle
   fill="#ffffff"
   id="circle17"
   style="fill:none;stroke:#ffffff;stroke-width:4.29026;stroke-dasharray:none;stroke-opacity:1"
   cx="122.15611"
   cy="401.25156"
   r="3" /><polygon
   points="185,415 120,430 185,419 "
   fill="none"
   stroke="#ffffff"
   stroke-width="2"
   id="polygon18"
   transform="translate(7.1561098,-9.8822468)"
   style="fill:none;stroke:#ffffff;stroke-width:4.29026;stroke-dasharray:none;stroke-opacity:1" /><circle
   fill="#ffffff"
   id="circle18"
   style="fill:none;stroke:#ffffff;stroke-width:4.29026;stroke-dasharray:none;stroke-opacity:1"
   cx="126.13381"
   cy="420.45853"
   r="3" /><path
   style="display:none;fill:none;fill-opacity:1;stroke:#ffffff;stroke-width:4.29026;stroke-dasharray:none;stroke-opacity:1;paint-order:markers fill stroke"
   d="m 164.84509,280.92221 c 15.91153,29.33759 77.15529,111.31407 81.78381,32.65949 0.20614,-41.5775 -3.5572,-39.15973 -32.65928,-64.10438 C 172.92273,211.81967 113.50725,159.05477 88.459985,136.78855 -14.236409,76.219218 66.856952,382.33911 153.23915,369.99347 14.262515,217.09375 55.634817,58.901398 164.84509,280.92221 Z"
   id="path71"
   sodipodi:nodetypes="cccccc"
   inkscape:label="path71" /></g>
    <use
   href="#half"
   transform="matrix(-1,0,0,1,496.59232,0)"
   id="use1"
   style="fill:none;stroke-width:4.29026;stroke-dasharray:none" />
    </g></svg>
