<?xml version="1.0" encoding="UTF-8"?>
<svg xmlns="http://www.w3.org/2000/svg" width="48" height="48" viewBox="0 0 48 48">
  <path d="M24,32 C27.3137085,32 30,29.3137085 30,26 L30,12 C30,8.6862915 27.3137085,6 24,6 C20.6862915,6 18,8.6862915 18,12 L18,26 C18,29.3137085 20.6862915,32 24,32 Z M35.5,23 L35.5,26 C35.5,32.3512746 30.3512746,37.5 24,37.5 C17.6487254,37.5 12.5,32.3512746 12.5,26 L12.5,23 L9,23 L9,26 C9,33.5855074 14.6599728,39.851972 22,40.8659992 L22,46 L26,46 L26,40.8659992 C33.3400272,39.851972 39,33.5855074 39,26 L39,23 L35.5,23 Z" fill="currentColor"/>
</svg>
